# xmcd
#
# Track frame offsets: 
#        150
#        46431
#        53777
#        72490
#        98455
#        130510
#        145218
#        170075
#        186735
#
# Disc length: 2751 seconds
#
# Revision: 3
# Processed by: cddbd v1.5.2PL0 Copyright (c) Steve Scherf et al.
# Submitted via: ExactAudioCopyFreeDBPlugin 1.0
#
DISCID=840abd09
DTITLE=The Eagles - Long Road Out of Eden
DYEAR=7
DGENRE=Unknown
TTITLE0=Long Road Out of Eden
TTITLE1=I Dreamed There Was No War
TTITLE2=Somebody
TTITLE3=Frail Grasp on the Big Picture
TTITLE4=Last Good Time in Town
TTITLE5=I Love to Watch a Woman Dance
TTITLE6=Business as Usual
TTITLE7=Center of the Universe
TTITLE8=It's Your World Now
EXTD=
EXTT0=
EXTT1=
EXTT2=
EXTT3=
EXTT4=
EXTT5=
EXTT6=
EXTT7=
EXTT8=
PLAYORDER=
